# Blender 5.0.0
# www.blender.org
o Torus
v 1.450000 0.000000 0.000000
v 1.344720 0.289254 0.000000
v 1.078142 0.443163 0.000000
v 0.775000 0.389711 0.000000
v 0.577138 0.153909 0.000000
v 0.577138 -0.153909 0.000000
v 0.775000 -0.389711 0.000000
v 1.078142 -0.443163 0.000000
v 1.344720 -0.289254 0.000000
v 1.339625 0.000000 -0.554891
v 1.242359 0.289254 -0.514602
v 0.996073 0.443163 -0.412587
v 0.716007 0.389711 -0.296580
v 0.533206 0.153909 -0.220861
v 0.533206 -0.153909 -0.220861
v 0.716007 -0.389711 -0.296580
v 0.996073 -0.443163 -0.412587
v 1.242359 -0.289254 -0.514602
v 1.025305 0.000000 -1.025305
v 0.950861 0.289254 -0.950861
v 0.762361 0.443163 -0.762361
v 0.548008 0.389711 -0.548008
v 0.408098 0.153909 -0.408098
v 0.408098 -0.153909 -0.408098
v 0.548008 -0.389711 -0.548008
v 0.762361 -0.443163 -0.762361
v 0.950861 -0.289254 -0.950861
v 0.554891 0.000000 -1.339625
v 0.514602 0.289254 -1.242359
v 0.412587 0.443163 -0.996073
v 0.296580 0.389711 -0.716007
v 0.220861 0.153909 -0.533206
v 0.220861 -0.153909 -0.533206
v 0.296580 -0.389711 -0.716007
v 0.412587 -0.443163 -0.996073
v 0.514602 -0.289254 -1.242359
v 0.000000 0.000000 -1.450000
v 0.000000 0.289254 -1.344720
v 0.000000 0.443163 -1.078142
v 0.000000 0.389711 -0.775000
v 0.000000 0.153909 -0.577138
v 0.000000 -0.153909 -0.577138
v 0.000000 -0.389711 -0.775000
v 0.000000 -0.443163 -1.078142
v 0.000000 -0.289254 -1.344720
v -0.554891 0.000000 -1.339625
v -0.514602 0.289254 -1.242359
v -0.412587 0.443163 -0.996073
v -0.296580 0.389711 -0.716007
v -0.220861 0.153909 -0.533206
v -0.220861 -0.153909 -0.533206
v -0.296580 -0.389711 -0.716007
v -0.412587 -0.443163 -0.996073
v -0.514602 -0.289254 -1.242359
v -1.025305 0.000000 -1.025305
v -0.950861 0.289254 -0.950860
v -0.762361 0.443163 -0.762361
v -0.548008 0.389711 -0.548008
v -0.408099 0.153909 -0.408098
v -0.408099 -0.153909 -0.408098
v -0.548008 -0.389711 -0.548008
v -0.762361 -0.443163 -0.762361
v -0.950861 -0.289254 -0.950860
v -1.339625 0.000000 -0.554891
v -1.242359 0.289254 -0.514602
v -0.996073 0.443163 -0.412587
v -0.716007 0.389711 -0.296580
v -0.533206 0.153909 -0.220861
v -0.533206 -0.153909 -0.220861
v -0.716007 -0.389711 -0.296580
v -0.996073 -0.443163 -0.412587
v -1.242359 -0.289254 -0.514602
v -1.450000 0.000000 -0.000000
v -1.344720 0.289254 -0.000000
v -1.078142 0.443163 -0.000000
v -0.775000 0.389711 -0.000000
v -0.577138 0.153909 -0.000000
v -0.577138 -0.153909 -0.000000
v -0.775000 -0.389711 -0.000000
v -1.078142 -0.443163 -0.000000
v -1.344720 -0.289254 -0.000000
v -1.339626 0.000000 0.554890
v -1.242360 0.289254 0.514602
v -0.996073 0.443163 0.412587
v -0.716007 0.389711 0.296579
v -0.533206 0.153909 0.220861
v -0.533206 -0.153909 0.220861
v -0.716007 -0.389711 0.296579
v -0.996073 -0.443163 0.412587
v -1.242360 -0.289254 0.514602
v -1.025305 0.000000 1.025305
v -0.950861 0.289254 0.950860
v -0.762361 0.443163 0.762361
v -0.548008 0.389711 0.548008
v -0.408099 0.153909 0.408098
v -0.408099 -0.153909 0.408098
v -0.548008 -0.389711 0.548008
v -0.762361 -0.443163 0.762361
v -0.950861 -0.289254 0.950860
v -0.554891 0.000000 1.339625
v -0.514602 0.289254 1.242359
v -0.412587 0.443163 0.996073
v -0.296580 0.389711 0.716007
v -0.220861 0.153909 0.533206
v -0.220861 -0.153909 0.533206
v -0.296580 -0.389711 0.716007
v -0.412587 -0.443163 0.996073
v -0.514602 -0.289254 1.242359
v 0.000000 0.000000 1.450000
v 0.000000 0.289254 1.344720
v 0.000000 0.443163 1.078142
v 0.000000 0.389711 0.775000
v 0.000000 0.153909 0.577138
v 0.000000 -0.153909 0.577138
v 0.000000 -0.389711 0.775000
v 0.000000 -0.443163 1.078142
v 0.000000 -0.289254 1.344720
v 0.554891 0.000000 1.339625
v 0.514602 0.289254 1.242359
v 0.412587 0.443163 0.996073
v 0.296580 0.389711 0.716007
v 0.220861 0.153909 0.533206
v 0.220861 -0.153909 0.533206
v 0.296580 -0.389711 0.716007
v 0.412587 -0.443163 0.996073
v 0.514602 -0.289254 1.242359
v 1.025304 0.000000 1.025306
v 0.950860 0.289254 0.950861
v 0.762361 0.443163 0.762362
v 0.548007 0.389711 0.548008
v 0.408098 0.153909 0.408099
v 0.408098 -0.153909 0.408099
v 0.548007 -0.389711 0.548008
v 0.762361 -0.443163 0.762362
v 0.950860 -0.289254 0.950861
v 1.339625 0.000000 0.554892
v 1.242359 0.289254 0.514603
v 0.996073 0.443163 0.412587
v 0.716007 0.389711 0.296580
v 0.533206 0.153909 0.220861
v 0.533206 -0.153909 0.220861
v 0.716007 -0.389711 0.296580
v 0.996073 -0.443163 0.412587
v 1.242359 -0.289254 0.514603
vn 0.9237 0.3362 -0.1837
vn 0.4975 0.8618 -0.0990
vn -0.1735 0.9842 0.0345
vn -0.7573 0.6355 0.1506
vn -0.9808 -0.0000 0.1951
vn -0.7573 -0.6355 0.1506
vn -0.1735 -0.9842 0.0345
vn 0.4975 -0.8618 -0.0990
vn 0.9237 -0.3362 -0.1837
vn 0.7831 0.3362 -0.5232
vn 0.4218 0.8618 -0.2818
vn -0.1471 0.9842 0.0983
vn -0.6420 0.6355 0.4290
vn -0.8315 -0.0000 0.5556
vn -0.6420 -0.6355 0.4290
vn -0.1471 -0.9842 0.0983
vn 0.4218 -0.8618 -0.2818
vn 0.7831 -0.3362 -0.5232
vn 0.5232 0.3362 -0.7831
vn 0.2818 0.8618 -0.4218
vn -0.0983 0.9842 0.1471
vn -0.4290 0.6355 0.6420
vn -0.5556 -0.0000 0.8315
vn -0.4290 -0.6355 0.6420
vn -0.0983 -0.9842 0.1471
vn 0.2818 -0.8618 -0.4218
vn 0.5232 -0.3362 -0.7831
vn 0.1837 0.3362 -0.9237
vn 0.0990 0.8618 -0.4975
vn -0.0345 0.9842 0.1735
vn -0.1506 0.6355 0.7573
vn -0.1951 -0.0000 0.9808
vn -0.1506 -0.6355 0.7573
vn -0.0345 -0.9842 0.1735
vn 0.0990 -0.8618 -0.4975
vn 0.1837 -0.3362 -0.9237
vn -0.1837 0.3362 -0.9237
vn -0.0990 0.8618 -0.4975
vn 0.0345 0.9842 0.1735
vn 0.1506 0.6355 0.7573
vn 0.1951 -0.0000 0.9808
vn 0.1506 -0.6355 0.7573
vn 0.0345 -0.9842 0.1735
vn -0.0990 -0.8618 -0.4975
vn -0.1837 -0.3362 -0.9237
vn -0.5232 0.3362 -0.7831
vn -0.2818 0.8618 -0.4218
vn 0.0983 0.9842 0.1471
vn 0.4290 0.6355 0.6420
vn 0.5556 -0.0000 0.8315
vn 0.4290 -0.6355 0.6420
vn 0.0983 -0.9842 0.1471
vn -0.2818 -0.8618 -0.4218
vn -0.5232 -0.3362 -0.7831
vn -0.7831 0.3362 -0.5232
vn -0.4218 0.8618 -0.2818
vn 0.1471 0.9842 0.0983
vn 0.6420 0.6355 0.4290
vn 0.8315 -0.0000 0.5556
vn 0.6420 -0.6355 0.4290
vn 0.1471 -0.9842 0.0983
vn -0.4218 -0.8618 -0.2818
vn -0.7831 -0.3362 -0.5232
vn -0.9237 0.3362 -0.1837
vn -0.4975 0.8618 -0.0990
vn 0.1735 0.9842 0.0345
vn 0.7573 0.6355 0.1506
vn 0.9808 -0.0000 0.1951
vn 0.7573 -0.6355 0.1506
vn 0.1735 -0.9842 0.0345
vn -0.4975 -0.8618 -0.0990
vn -0.9237 -0.3362 -0.1837
vn -0.9237 0.3362 0.1837
vn -0.4975 0.8618 0.0990
vn 0.1735 0.9842 -0.0345
vn 0.7573 0.6355 -0.1506
vn 0.9808 -0.0000 -0.1951
vn 0.7573 -0.6355 -0.1506
vn 0.1735 -0.9842 -0.0345
vn -0.4975 -0.8618 0.0990
vn -0.9237 -0.3362 0.1837
vn -0.7831 0.3362 0.5232
vn -0.4218 0.8618 0.2818
vn 0.1471 0.9842 -0.0983
vn 0.6420 0.6355 -0.4290
vn 0.8315 -0.0000 -0.5556
vn 0.6420 -0.6355 -0.4290
vn 0.1471 -0.9842 -0.0983
vn -0.4218 -0.8618 0.2818
vn -0.7831 -0.3362 0.5232
vn -0.5232 0.3362 0.7831
vn -0.2818 0.8618 0.4218
vn 0.0983 0.9842 -0.1471
vn 0.4290 0.6355 -0.6420
vn 0.5556 -0.0000 -0.8315
vn 0.4290 -0.6355 -0.6420
vn 0.0983 -0.9842 -0.1471
vn -0.2818 -0.8618 0.4218
vn -0.5232 -0.3362 0.7831
vn -0.1837 0.3362 0.9237
vn -0.0990 0.8618 0.4975
vn 0.0345 0.9842 -0.1735
vn 0.1506 0.6355 -0.7573
vn 0.1951 -0.0000 -0.9808
vn 0.1506 -0.6355 -0.7573
vn 0.0345 -0.9842 -0.1735
vn -0.0990 -0.8618 0.4975
vn -0.1837 -0.3362 0.9237
vn 0.1837 0.3362 0.9237
vn 0.0990 0.8618 0.4975
vn -0.0345 0.9842 -0.1735
vn -0.1506 0.6355 -0.7573
vn -0.1951 -0.0000 -0.9808
vn -0.1506 -0.6355 -0.7573
vn -0.0345 -0.9842 -0.1735
vn 0.0990 -0.8618 0.4975
vn 0.1837 -0.3362 0.9237
vn 0.5232 0.3362 0.7831
vn 0.2818 0.8618 0.4218
vn -0.0983 0.9842 -0.1471
vn -0.4290 0.6355 -0.6420
vn -0.5556 -0.0000 -0.8315
vn -0.4290 -0.6355 -0.6420
vn -0.0983 -0.9842 -0.1471
vn 0.2818 -0.8618 0.4218
vn 0.5232 -0.3362 0.7831
vn 0.7831 0.3362 0.5232
vn 0.4218 0.8618 0.2818
vn -0.1471 0.9842 -0.0983
vn -0.6420 0.6355 -0.4290
vn -0.8315 -0.0000 -0.5556
vn -0.6420 -0.6355 -0.4290
vn -0.1471 -0.9842 -0.0983
vn 0.4218 -0.8618 0.2818
vn 0.7831 -0.3362 0.5232
vn 0.9237 0.3362 0.1837
vn 0.4975 0.8618 0.0990
vn -0.1735 0.9842 -0.0345
vn -0.7573 0.6355 -0.1506
vn -0.9808 -0.0000 -0.1951
vn -0.7573 -0.6355 -0.1506
vn -0.1735 -0.9842 -0.0345
vn 0.4975 -0.8618 0.0990
vn 0.9237 -0.3362 0.1837
vt 0.500000 0.555556
vt 0.562500 0.555556
vt 0.562500 0.666667
vt 0.500000 0.666667
vt 0.562500 0.777778
vt 0.500000 0.777778
vt 0.562500 0.888889
vt 0.500000 0.888889
vt 0.562500 1.000000
vt 0.500000 1.000000
vt 0.500000 0.000000
vt 0.562500 0.000000
vt 0.562500 0.111111
vt 0.500000 0.111111
vt 0.562500 0.222222
vt 0.500000 0.222222
vt 0.562500 0.333333
vt 0.500000 0.333333
vt 0.562500 0.444444
vt 0.500000 0.444444
vt 0.625000 0.555556
vt 0.625000 0.666667
vt 0.625000 0.777778
vt 0.625000 0.888889
vt 0.625000 1.000000
vt 0.625000 0.000000
vt 0.625000 0.111111
vt 0.625000 0.222222
vt 0.625000 0.333333
vt 0.625000 0.444444
vt 0.687500 0.555556
vt 0.687500 0.666667
vt 0.687500 0.777778
vt 0.687500 0.888889
vt 0.687500 1.000000
vt 0.687500 0.000000
vt 0.687500 0.111111
vt 0.687500 0.222222
vt 0.687500 0.333333
vt 0.687500 0.444444
vt 0.750000 0.555556
vt 0.750000 0.666667
vt 0.750000 0.777778
vt 0.750000 0.888889
vt 0.750000 1.000000
vt 0.750000 0.000000
vt 0.750000 0.111111
vt 0.750000 0.222222
vt 0.750000 0.333333
vt 0.750000 0.444444
vt 0.812500 0.555556
vt 0.812500 0.666667
vt 0.812500 0.777778
vt 0.812500 0.888889
vt 0.812500 1.000000
vt 0.812500 0.000000
vt 0.812500 0.111111
vt 0.812500 0.222222
vt 0.812500 0.333333
vt 0.812500 0.444444
vt 0.875000 0.555556
vt 0.875000 0.666667
vt 0.875000 0.777778
vt 0.875000 0.888889
vt 0.875000 1.000000
vt 0.875000 0.000000
vt 0.875000 0.111111
vt 0.875000 0.222222
vt 0.875000 0.333333
vt 0.875000 0.444444
vt 0.937500 0.555556
vt 0.937500 0.666667
vt 0.937500 0.777778
vt 0.937500 0.888889
vt 0.937500 1.000000
vt 0.937500 0.000000
vt 0.937500 0.111111
vt 0.937500 0.222222
vt 0.937500 0.333333
vt 0.937500 0.444444
vt 1.000000 0.555556
vt 1.000000 0.666667
vt 1.000000 0.777778
vt 1.000000 0.888889
vt 1.000000 1.000000
vt 1.000000 0.000000
vt 1.000000 0.111111
vt 1.000000 0.222222
vt 1.000000 0.333333
vt 1.000000 0.444444
vt 0.000000 0.555556
vt 0.062500 0.555556
vt 0.062500 0.666667
vt 0.000000 0.666667
vt 0.062500 0.777778
vt 0.000000 0.777778
vt 0.062500 0.888889
vt 0.000000 0.888889
vt 0.062500 1.000000
vt 0.000000 1.000000
vt 0.000000 0.000000
vt 0.062500 0.000000
vt 0.062500 0.111111
vt 0.000000 0.111111
vt 0.062500 0.222222
vt 0.000000 0.222222
vt 0.062500 0.333333
vt 0.000000 0.333333
vt 0.062500 0.444444
vt 0.000000 0.444444
vt 0.125000 0.555556
vt 0.125000 0.666667
vt 0.125000 0.777778
vt 0.125000 0.888889
vt 0.125000 1.000000
vt 0.125000 0.000000
vt 0.125000 0.111111
vt 0.125000 0.222222
vt 0.125000 0.333333
vt 0.125000 0.444444
vt 0.187500 0.555556
vt 0.187500 0.666667
vt 0.187500 0.777778
vt 0.187500 0.888889
vt 0.187500 1.000000
vt 0.187500 0.000000
vt 0.187500 0.111111
vt 0.187500 0.222222
vt 0.187500 0.333333
vt 0.187500 0.444444
vt 0.250000 0.555556
vt 0.250000 0.666667
vt 0.250000 0.777778
vt 0.250000 0.888889
vt 0.250000 1.000000
vt 0.250000 0.000000
vt 0.250000 0.111111
vt 0.250000 0.222222
vt 0.250000 0.333333
vt 0.250000 0.444444
vt 0.312500 0.555556
vt 0.312500 0.666667
vt 0.312500 0.777778
vt 0.312500 0.888889
vt 0.312500 1.000000
vt 0.312500 0.000000
vt 0.312500 0.111111
vt 0.312500 0.222222
vt 0.312500 0.333333
vt 0.312500 0.444444
vt 0.375000 0.555556
vt 0.375000 0.666667
vt 0.375000 0.777778
vt 0.375000 0.888889
vt 0.375000 1.000000
vt 0.375000 0.000000
vt 0.375000 0.111111
vt 0.375000 0.222222
vt 0.375000 0.333333
vt 0.375000 0.444444
vt 0.437500 0.555556
vt 0.437500 0.666667
vt 0.437500 0.777778
vt 0.437500 0.888889
vt 0.437500 1.000000
vt 0.437500 0.000000
vt 0.437500 0.111111
vt 0.437500 0.222222
vt 0.437500 0.333333
vt 0.437500 0.444444
s 0
f 1/1/1 10/2/1 11/3/1 2/4/1
f 2/4/2 11/3/2 12/5/2 3/6/2
f 3/6/3 12/5/3 13/7/3 4/8/3
f 4/8/4 13/7/4 14/9/4 5/10/4
f 5/11/5 14/12/5 15/13/5 6/14/5
f 6/14/6 15/13/6 16/15/6 7/16/6
f 7/16/7 16/15/7 17/17/7 8/18/7
f 8/18/8 17/17/8 18/19/8 9/20/8
f 9/20/9 18/19/9 10/2/9 1/1/9
f 10/2/10 19/21/10 20/22/10 11/3/10
f 11/3/11 20/22/11 21/23/11 12/5/11
f 12/5/12 21/23/12 22/24/12 13/7/12
f 13/7/13 22/24/13 23/25/13 14/9/13
f 14/12/14 23/26/14 24/27/14 15/13/14
f 15/13/15 24/27/15 25/28/15 16/15/15
f 16/15/16 25/28/16 26/29/16 17/17/16
f 17/17/17 26/29/17 27/30/17 18/19/17
f 18/19/18 27/30/18 19/21/18 10/2/18
f 19/21/19 28/31/19 29/32/19 20/22/19
f 20/22/20 29/32/20 30/33/20 21/23/20
f 21/23/21 30/33/21 31/34/21 22/24/21
f 22/24/22 31/34/22 32/35/22 23/25/22
f 23/26/23 32/36/23 33/37/23 24/27/23
f 24/27/24 33/37/24 34/38/24 25/28/24
f 25/28/25 34/38/25 35/39/25 26/29/25
f 26/29/26 35/39/26 36/40/26 27/30/26
f 27/30/27 36/40/27 28/31/27 19/21/27
f 28/31/28 37/41/28 38/42/28 29/32/28
f 29/32/29 38/42/29 39/43/29 30/33/29
f 30/33/30 39/43/30 40/44/30 31/34/30
f 31/34/31 40/44/31 41/45/31 32/35/31
f 32/36/32 41/46/32 42/47/32 33/37/32
f 33/37/33 42/47/33 43/48/33 34/38/33
f 34/38/34 43/48/34 44/49/34 35/39/34
f 35/39/35 44/49/35 45/50/35 36/40/35
f 36/40/36 45/50/36 37/41/36 28/31/36
f 37/41/37 46/51/37 47/52/37 38/42/37
f 38/42/38 47/52/38 48/53/38 39/43/38
f 39/43/39 48/53/39 49/54/39 40/44/39
f 40/44/40 49/54/40 50/55/40 41/45/40
f 41/46/41 50/56/41 51/57/41 42/47/41
f 42/47/42 51/57/42 52/58/42 43/48/42
f 43/48/43 52/58/43 53/59/43 44/49/43
f 44/49/44 53/59/44 54/60/44 45/50/44
f 45/50/45 54/60/45 46/51/45 37/41/45
f 46/51/46 55/61/46 56/62/46 47/52/46
f 47/52/47 56/62/47 57/63/47 48/53/47
f 48/53/48 57/63/48 58/64/48 49/54/48
f 49/54/49 58/64/49 59/65/49 50/55/49
f 50/56/50 59/66/50 60/67/50 51/57/50
f 51/57/51 60/67/51 61/68/51 52/58/51
f 52/58/52 61/68/52 62/69/52 53/59/52
f 53/59/53 62/69/53 63/70/53 54/60/53
f 54/60/54 63/70/54 55/61/54 46/51/54
f 55/61/55 64/71/55 65/72/55 56/62/55
f 56/62/56 65/72/56 66/73/56 57/63/56
f 57/63/57 66/73/57 67/74/57 58/64/57
f 58/64/58 67/74/58 68/75/58 59/65/58
f 59/66/59 68/76/59 69/77/59 60/67/59
f 60/67/60 69/77/60 70/78/60 61/68/60
f 61/68/61 70/78/61 71/79/61 62/69/61
f 62/69/62 71/79/62 72/80/62 63/70/62
f 63/70/63 72/80/63 64/71/63 55/61/63
f 64/71/64 73/81/64 74/82/64 65/72/64
f 65/72/65 74/82/65 75/83/65 66/73/65
f 66/73/66 75/83/66 76/84/66 67/74/66
f 67/74/67 76/84/67 77/85/67 68/75/67
f 68/76/68 77/86/68 78/87/68 69/77/68
f 69/77/69 78/87/69 79/88/69 70/78/69
f 70/78/70 79/88/70 80/89/70 71/79/70
f 71/79/71 80/89/71 81/90/71 72/80/71
f 72/80/72 81/90/72 73/81/72 64/71/72
f 73/91/73 82/92/73 83/93/73 74/94/73
f 74/94/74 83/93/74 84/95/74 75/96/74
f 75/96/75 84/95/75 85/97/75 76/98/75
f 76/98/76 85/97/76 86/99/76 77/100/76
f 77/101/77 86/102/77 87/103/77 78/104/77
f 78/104/78 87/103/78 88/105/78 79/106/78
f 79/106/79 88/105/79 89/107/79 80/108/79
f 80/108/80 89/107/80 90/109/80 81/110/80
f 81/110/81 90/109/81 82/92/81 73/91/81
f 82/92/82 91/111/82 92/112/82 83/93/82
f 83/93/83 92/112/83 93/113/83 84/95/83
f 84/95/84 93/113/84 94/114/84 85/97/84
f 85/97/85 94/114/85 95/115/85 86/99/85
f 86/102/86 95/116/86 96/117/86 87/103/86
f 87/103/87 96/117/87 97/118/87 88/105/87
f 88/105/88 97/118/88 98/119/88 89/107/88
f 89/107/89 98/119/89 99/120/89 90/109/89
f 90/109/90 99/120/90 91/111/90 82/92/90
f 91/111/91 100/121/91 101/122/91 92/112/91
f 92/112/92 101/122/92 102/123/92 93/113/92
f 93/113/93 102/123/93 103/124/93 94/114/93
f 94/114/94 103/124/94 104/125/94 95/115/94
f 95/116/95 104/126/95 105/127/95 96/117/95
f 96/117/96 105/127/96 106/128/96 97/118/96
f 97/118/97 106/128/97 107/129/97 98/119/97
f 98/119/98 107/129/98 108/130/98 99/120/98
f 99/120/99 108/130/99 100/121/99 91/111/99
f 100/121/100 109/131/100 110/132/100 101/122/100
f 101/122/101 110/132/101 111/133/101 102/123/101
f 102/123/102 111/133/102 112/134/102 103/124/102
f 103/124/103 112/134/103 113/135/103 104/125/103
f 104/126/104 113/136/104 114/137/104 105/127/104
f 105/127/105 114/137/105 115/138/105 106/128/105
f 106/128/106 115/138/106 116/139/106 107/129/106
f 107/129/107 116/139/107 117/140/107 108/130/107
f 108/130/108 117/140/108 109/131/108 100/121/108
f 109/131/109 118/141/109 119/142/109 110/132/109
f 110/132/110 119/142/110 120/143/110 111/133/110
f 111/133/111 120/143/111 121/144/111 112/134/111
f 112/134/112 121/144/112 122/145/112 113/135/112
f 113/136/113 122/146/113 123/147/113 114/137/113
f 114/137/114 123/147/114 124/148/114 115/138/114
f 115/138/115 124/148/115 125/149/115 116/139/115
f 116/139/116 125/149/116 126/150/116 117/140/116
f 117/140/117 126/150/117 118/141/117 109/131/117
f 118/141/118 127/151/118 128/152/118 119/142/118
f 119/142/119 128/152/119 129/153/119 120/143/119
f 120/143/120 129/153/120 130/154/120 121/144/120
f 121/144/121 130/154/121 131/155/121 122/145/121
f 122/146/122 131/156/122 132/157/122 123/147/122
f 123/147/123 132/157/123 133/158/123 124/148/123
f 124/148/124 133/158/124 134/159/124 125/149/124
f 125/149/125 134/159/125 135/160/125 126/150/125
f 126/150/126 135/160/126 127/151/126 118/141/126
f 127/151/127 136/161/127 137/162/127 128/152/127
f 128/152/128 137/162/128 138/163/128 129/153/128
f 129/153/129 138/163/129 139/164/129 130/154/129
f 130/154/130 139/164/130 140/165/130 131/155/130
f 131/156/131 140/166/131 141/167/131 132/157/131
f 132/157/132 141/167/132 142/168/132 133/158/132
f 133/158/133 142/168/133 143/169/133 134/159/133
f 134/159/134 143/169/134 144/170/134 135/160/134
f 135/160/135 144/170/135 136/161/135 127/151/135
f 136/161/136 1/1/136 2/4/136 137/162/136
f 137/162/137 2/4/137 3/6/137 138/163/137
f 138/163/138 3/6/138 4/8/138 139/164/138
f 139/164/139 4/8/139 5/10/139 140/165/139
f 140/166/140 5/11/140 6/14/140 141/167/140
f 141/167/141 6/14/141 7/16/141 142/168/141
f 142/168/142 7/16/142 8/18/142 143/169/142
f 143/169/143 8/18/143 9/20/143 144/170/143
f 144/170/144 9/20/144 1/1/144 136/161/144
